# xmcd
#
# Track frame offsets: 
#        150
#        18163
#        42073
#        66501
#        90345
#        120006
#        159316
#        182815
#        209063
#        228773
#
# Disc length: 3507 seconds
#
# Revision: 2
# Processed by: cddbd v1.5.2PL0 Copyright (c) Steve Scherf et al.
# Submitted via: ExactAudioCopy v1.0b4
#
DISCID=720db10a
DTITLE=JW Jones - Defibrillatin
DYEAR=2000
DGENRE=Blues, Jump Blues
TTITLE0=Too many Times
TTITLE1=Sittin Here Waitin
TTITLE2=Defibrillatin
TTITLE3=One Night Stand
TTITLE4=Batyology
TTITLE5=Waitin Around
TTITLE6=Trying So Hard
TTITLE7=Dizzy Spell
TTITLE8=Dino Sammiches and Cornbread
TTITLE9=Studio Out Takes
EXTD=
EXTT0=
EXTT1=
EXTT2=
EXTT3=
EXTT4=
EXTT5=
EXTT6=
EXTT7=
EXTT8=
EXTT9=
PLAYORDER=
